<?xml version="1.0" encoding="UTF-8"?>
<svg width="256" height="256" viewBox="0 0 256 256" xmlns="http://www.w3.org/2000/svg" role="img" aria-labelledby="title desc">
  <title id="title">Iguana Project Icon</title>
  <desc id="desc">Stylized iguana with a curved tail and sun background.</desc>
  <defs>
    <linearGradient id="sunGlow" x1="0" x2="1" y1="0" y2="1">
      <stop offset="0%" stop-color="#FFE08A" />
      <stop offset="100%" stop-color="#FFB347" />
    </linearGradient>
    <linearGradient id="iguanaBody" x1="0" x2="1" y1="0" y2="1">
      <stop offset="0%" stop-color="#6EDC8B" />
      <stop offset="100%" stop-color="#2FA56A" />
    </linearGradient>
  </defs>
  <rect width="256" height="256" rx="56" fill="#0F172A" />
  <circle cx="184" cy="72" r="44" fill="url(#sunGlow)" opacity="0.95" />
  <path
    d="M52 156c18-28 48-44 82-44 28 0 54 10 70 28 9 10 16 23 18 38-18 12-38 18-58 18-20 0-38-6-52-17-14-11-24-26-30-45z"
    fill="url(#iguanaBody)"
  />
  <path
    d="M144 104c6-8 18-14 30-12 10 1 18 8 22 18"
    fill="none"
    stroke="#1C7F53"
    stroke-width="10"
    stroke-linecap="round"
  />
  <path
    d="M70 164c-8 20-10 36-6 52 2 10 10 18 20 20 12 2 26-6 34-22"
    fill="none"
    stroke="#2FA56A"
    stroke-width="12"
    stroke-linecap="round"
  />
  <circle cx="168" cy="132" r="6" fill="#0F172A" />
  <path
    d="M96 132l10-16 10 16"
    fill="none"
    stroke="#5EE19C"
    stroke-width="8"
    stroke-linecap="round"
    stroke-linejoin="round"
  />
  <path
    d="M92 116l-14 10"
    stroke="#5EE19C"
    stroke-width="6"
    stroke-linecap="round"
  />
  <path
    d="M108 116l14 10"
    stroke="#5EE19C"
    stroke-width="6"
    stroke-linecap="round"
  />
</svg>
