<svg width="128" height="128" viewBox="0 0 128 128" xmlns="http://www.w3.org/2000/svg" role="img" aria-labelledby="title desc">
  <title id="title">Bender Project Icon</title>
  <desc id="desc">Rounded square with gradient background and stylised letter B with antenna, symbolising a helpful robot assistant.</desc>
  <defs>
    <linearGradient id="bg" x1="18%" y1="16%" x2="82%" y2="84%">
      <stop offset="0%" stop-color="#4f46e5" />
      <stop offset="100%" stop-color="#22d3ee" />
    </linearGradient>
    <linearGradient id="shine" x1="0%" y1="0%" x2="100%" y2="100%">
      <stop offset="0%" stop-color="#ffffff" stop-opacity="0.6" />
      <stop offset="60%" stop-color="#ffffff" stop-opacity="0" />
    </linearGradient>
  </defs>
  <rect x="8" y="8" width="112" height="112" rx="24" fill="url(#bg)" />
  <path d="M64 20c-3.313 0-6 2.687-6 6v2.5c0 1.105.895 2 2 2h8c1.105 0 2-.895 2-2V26c0-3.313-2.687-6-6-6z" fill="#f8fafc" />
  <circle cx="64" cy="28" r="4" fill="#0ea5e9" />
  <path d="M44 44c0-4.418 3.582-8 8-8h24c7.732 0 14 6.268 14 14v32c0 12.15-9.85 22-22 22H52c-4.418 0-8-3.582-8-8V44z" fill="#f8fafc" />
  <path d="M58 48h15c4.971 0 9 4.029 9 9v14c0 4.971-4.029 9-9 9H58c-4.971 0-9-4.029-9-9V57c0-4.971 4.029-9 9-9z" fill="#312e81" />
  <path d="M52 60h18c3.866 0 7 3.134 7 7s-3.134 7-7 7H52" stroke="#38bdf8" stroke-width="6" stroke-linecap="round" />
  <path d="M48 92h22c5.523 0 10 4.477 10 10v2c0 1.105-.895 2-2 2H52c-2.209 0-4-1.791-4-4V92z" fill="#1d4ed8" />
  <path d="M28 40c0-6.627 5.373-12 12-12" stroke="url(#shine)" stroke-width="10" stroke-linecap="round" />
</svg>
